<svg xmlns="http://www.w3.org/2000/svg" xmlns:xlink="http://www.w3.org/1999/xlink" width="500" zoomAndPan="magnify" viewBox="0 0 375 374.999991" height="500" preserveAspectRatio="xMidYMid meet" version="1.0"><defs><g/><clipPath id="ab73018496"><path d="M 67 67 L 309 67 L 309 309 L 67 309 Z M 67 67 " clip-rule="nonzero"/></clipPath><clipPath id="43113eaad8"><path d="M 159.191406 19.171875 L 355.914062 159.25 L 215.835938 355.972656 L 19.109375 215.894531 Z M 159.191406 19.171875 " clip-rule="nonzero"/></clipPath><clipPath id="aba240ddb3"><path d="M 355.828125 159.191406 L 159.105469 19.109375 L 19.023438 215.835938 L 215.75 355.914062 Z M 355.828125 159.191406 " clip-rule="nonzero"/></clipPath><clipPath id="bb809b129c"><path d="M 153 150 L 154 150 L 154 151 L 153 151 Z M 153 150 " clip-rule="nonzero"/></clipPath><clipPath id="29a2531fd7"><path d="M 63.992188 19.171875 L 245.070312 136.929688 L 189.875 221.808594 L 8.792969 104.054688 Z M 63.992188 19.171875 " clip-rule="nonzero"/></clipPath><clipPath id="254104e48c"><path d="M 63.992188 19.171875 L 245.070312 136.929688 L 189.875 221.808594 L 8.792969 104.054688 Z M 63.992188 19.171875 " clip-rule="nonzero"/></clipPath><clipPath id="c126c2d7dc"><path d="M 97 129 L 98 129 L 98 130 L 97 130 Z M 97 129 " clip-rule="nonzero"/></clipPath><clipPath id="d5f6f727e7"><path d="M 63.992188 19.171875 L 245.070312 136.929688 L 189.875 221.808594 L 8.792969 104.054688 Z M 63.992188 19.171875 " clip-rule="nonzero"/></clipPath><clipPath id="616457ee50"><path d="M 63.992188 19.171875 L 245.070312 136.929688 L 189.875 221.808594 L 8.792969 104.054688 Z M 63.992188 19.171875 " clip-rule="nonzero"/></clipPath><clipPath id="d40dced05f"><path d="M 65 120 L 66 120 L 66 121 L 65 121 Z M 65 120 " clip-rule="nonzero"/></clipPath><clipPath id="0f8002730d"><path d="M 63.992188 19.171875 L 245.070312 136.929688 L 189.875 221.808594 L 8.792969 104.054688 Z M 63.992188 19.171875 " clip-rule="nonzero"/></clipPath><clipPath id="665a8dc266"><path d="M 63.992188 19.171875 L 245.070312 136.929688 L 189.875 221.808594 L 8.792969 104.054688 Z M 63.992188 19.171875 " clip-rule="nonzero"/></clipPath><clipPath id="210796808c"><path d="M 14 74 L 156 74 L 156 146 L 14 146 Z M 14 74 " clip-rule="nonzero"/></clipPath><clipPath id="f1e798b2c8"><path d="M 63.992188 19.171875 L 245.070312 136.929688 L 189.875 221.808594 L 8.792969 104.054688 Z M 63.992188 19.171875 " clip-rule="nonzero"/></clipPath><clipPath id="69c1b4dd3e"><path d="M 63.992188 19.171875 L 245.070312 136.929688 L 189.875 221.808594 L 8.792969 104.054688 Z M 63.992188 19.171875 " clip-rule="nonzero"/></clipPath><clipPath id="78c2814d3b"><path d="M 38.125 58.953125 L 160.117188 138.28125 L 130.925781 183.171875 L 8.933594 103.839844 Z M 38.125 58.953125 " clip-rule="nonzero"/></clipPath><clipPath id="021f38610e"><path d="M 192 189 L 193 189 L 193 190 L 192 190 Z M 192 189 " clip-rule="nonzero"/></clipPath><clipPath id="895820001c"><path d="M 63.992188 19.171875 L 245.070312 136.929688 L 189.875 221.808594 L 8.792969 104.054688 Z M 63.992188 19.171875 " clip-rule="nonzero"/></clipPath><clipPath id="0558a0a570"><path d="M 63.992188 19.171875 L 245.070312 136.929688 L 189.875 221.808594 L 8.792969 104.054688 Z M 63.992188 19.171875 " clip-rule="nonzero"/></clipPath><clipPath id="af1ac68148"><path d="M 155 101 L 242 101 L 242 185 L 155 185 Z M 155 101 " clip-rule="nonzero"/></clipPath><clipPath id="702e70434d"><path d="M 63.992188 19.171875 L 245.070312 136.929688 L 189.875 221.808594 L 8.792969 104.054688 Z M 63.992188 19.171875 " clip-rule="nonzero"/></clipPath><clipPath id="31d3f73cc2"><path d="M 63.992188 19.171875 L 245.070312 136.929688 L 189.875 221.808594 L 8.792969 104.054688 Z M 63.992188 19.171875 " clip-rule="nonzero"/></clipPath></defs><g clip-path="url(#ab73018496)"><g clip-path="url(#43113eaad8)"><g clip-path="url(#aba240ddb3)"><path fill="#ba5cf0" d="M 116.375 284.566406 C 103.675781 275.242188 92.859375 263.460938 84.734375 250.078125 C 76.609375 236.695312 71.058594 221.769531 68.589844 206.367188 C 66.125 190.964844 66.613281 175.066406 70.148438 159.929688 C 73.636719 144.757812 80.203125 130.300781 89.242188 117.605469 C 80.203125 130.300781 73.683594 144.789062 70.195312 159.960938 C 66.707031 175.132812 66.34375 191.050781 69.035156 206.335938 C 71.695312 221.664062 77.460938 236.390625 85.820312 249.445312 C 94.175781 262.5 105.199219 273.792969 117.886719 282.546875 C 130.574219 291.300781 144.964844 297.46875 159.96875 300.695312 C 174.925781 303.890625 190.53125 304.101562 205.480469 301.382812 C 220.476562 298.695312 234.898438 293.066406 247.691406 284.875 C 260.503906 276.761719 271.691406 266.089844 280.464844 253.765625 C 289.273438 241.398438 295.664062 227.382812 299.140625 212.621094 C 302.617188 197.863281 303.21875 182.398438 300.898438 167.378906 C 298.53125 152.332031 293.273438 137.683594 285.363281 124.59375 C 277.421875 111.34375 266.855469 99.8125 254.433594 90.683594 C 242.011719 81.558594 227.734375 74.835938 212.664062 71.210938 C 197.625 67.535156 181.789062 66.953125 166.386719 69.421875 C 151.03125 71.921875 136.1875 77.457031 122.945312 85.683594 C 109.699219 93.910156 98.1875 104.84375 89.148438 117.539062 C 98.1875 104.84375 109.699219 93.910156 122.898438 85.648438 C 136.125 77.34375 150.910156 71.695312 166.273438 68.988281 C 181.636719 66.28125 197.589844 66.597656 212.859375 69.945312 C 228.324219 73.21875 242.960938 79.632812 255.960938 88.539062 C 268.929688 97.488281 280.230469 108.984375 288.804688 122.332031 C 297.410156 135.632812 303.398438 150.730469 306.238281 166.398438 C 309.078125 182.070312 308.738281 198.355469 305.285156 213.972656 C 301.78125 229.558594 295.089844 244.488281 285.820312 257.507812 C 276.546875 270.53125 264.625 281.738281 250.996094 290.109375 C 237.414062 298.515625 222.089844 304.132812 206.355469 306.574219 C 190.621094 309.015625 174.441406 308.328125 159.007812 304.515625 C 143.636719 300.8125 129.078125 293.894531 116.375 284.566406 Z M 116.375 284.566406 " fill-opacity="1" fill-rule="nonzero"/></g></g></g><g fill="#ba5cf0" fill-opacity="1"><g transform="translate(111.631304, 243.894183)"><g><path d="M -3.71875 0 L 7.09375 -46.953125 L 16.171875 -46.953125 L 5.34375 0 Z M -3.71875 0 "/></g></g></g><g fill="#ba5cf0" fill-opacity="1"><g transform="translate(126.167284, 243.894183)"><g><path d="M -3.28125 0 L 7.53125 -46.953125 L 26.34375 -46.953125 L 24.265625 -37.828125 L 14.90625 -37.828125 L 13.171875 -30.328125 L 22.015625 -30.328125 L 19.9375 -21.3125 L 11.09375 -21.3125 L 6.171875 0 Z M -3.28125 0 "/></g></g></g><g fill="#ba5cf0" fill-opacity="1"><g transform="translate(150.102112, 243.894183)"><g><path d="M -3.71875 0 L 7.09375 -46.953125 L 16.171875 -46.953125 L 5.34375 0 Z M -3.71875 0 "/></g></g></g><g fill="#ba5cf0" fill-opacity="1"><g transform="translate(164.638091, 243.894183)"><g><path d="M -3.28125 0 L 7.53125 -46.953125 L 17.203125 -46.953125 L 16.328125 -24.484375 L 21.53125 -46.953125 L 30.59375 -46.953125 L 19.78125 0 L 10.59375 0 L 11.3125 -23.5 L 5.890625 0 Z M -3.28125 0 "/></g></g></g><g fill="#ba5cf0" fill-opacity="1"><g transform="translate(193.982714, 243.894183)"><g><path d="M -3.71875 0 L 7.09375 -46.953125 L 16.171875 -46.953125 L 5.34375 0 Z M -3.71875 0 "/></g></g></g><g fill="#ba5cf0" fill-opacity="1"><g transform="translate(208.518696, 243.894183)"><g><path d="M 0.703125 0 L 9.453125 -37.9375 L 3.875 -37.9375 L 5.953125 -46.953125 L 26.515625 -46.953125 L 24.4375 -37.9375 L 18.859375 -37.9375 L 10.109375 0 Z M 0.703125 0 "/></g></g></g><g fill="#ba5cf0" fill-opacity="1"><g transform="translate(232.289583, 243.894183)"><g><path d="M 2.34375 0 L 5.90625 -15.46875 L 5.6875 -46.953125 L 14.96875 -46.953125 L 13.9375 -31.046875 L 20.21875 -46.953125 L 29.515625 -46.953125 L 14.75 -15.46875 L 11.203125 0 Z M 2.34375 0 "/></g></g></g><g fill="#ba5cf0" fill-opacity="1"><g transform="translate(159.933172, 259.833909)"><g><path d="M 4.9375 0 L 3.71875 0 L 3.671875 -0.765625 L 3.59375 -1.34375 L 2.46875 -1.359375 L 1.5 -1.34375 L 1.28125 -0.828125 L 1.015625 0 L -0.1875 0 L 2.484375 -5.890625 L 3.921875 -5.890625 Z M 3.453125 -2.28125 L 3.078125 -4.765625 L 3 -4.765625 L 1.921875 -2.28125 L 2.671875 -2.265625 Z M 3.453125 -2.28125 "/></g></g></g><g fill="#ba5cf0" fill-opacity="1"><g transform="translate(168.780755, 259.833909)"><g><path d="M 3.03125 0 L 1.59375 0 L 0.546875 -5.890625 L 1.78125 -5.890625 L 1.828125 -5.140625 L 2.4375 -1.140625 L 2.5 -1.140625 L 4.234375 -5.078125 L 4.5 -5.890625 L 5.671875 -5.890625 Z M 3.03125 0 "/></g></g></g><g fill="#ba5cf0" fill-opacity="1"><g transform="translate(177.509205, 259.833909)"><g><path d="M 1.828125 -1.875 L 1.65625 0 L 0.4375 0 L 0.71875 -1.765625 L 1.171875 -5.890625 L 2.40625 -5.890625 Z M 1.828125 -1.875 "/></g></g></g><g fill="#ba5cf0" fill-opacity="1"><g transform="translate(183.662562, 259.833909)"><g><path d="M 4.9375 0 L 3.71875 0 L 3.671875 -0.765625 L 3.59375 -1.34375 L 2.46875 -1.359375 L 1.5 -1.34375 L 1.28125 -0.828125 L 1.015625 0 L -0.1875 0 L 2.484375 -5.890625 L 3.921875 -5.890625 Z M 3.453125 -2.28125 L 3.078125 -4.765625 L 3 -4.765625 L 1.921875 -2.28125 L 2.671875 -2.265625 Z M 3.453125 -2.28125 "/></g></g></g><g fill="#ba5cf0" fill-opacity="1"><g transform="translate(192.510145, 259.833909)"><g><path d="M 4.8125 -5.8125 L 4.625 -4.90625 L 3.5625 -4.96875 L 3.203125 -4.96875 L 2.78125 -1.875 L 2.59375 0 L 1.390625 0 L 1.671875 -1.765625 L 2.03125 -4.96875 L 1.671875 -4.96875 L 0.5625 -4.90625 L 0.5 -5 L 0.703125 -5.890625 L 4.765625 -5.890625 Z M 4.8125 -5.8125 "/></g></g></g><g fill="#ba5cf0" fill-opacity="1"><g transform="translate(200.496306, 259.833909)"><g><path d="M 3.390625 -5.984375 C 4.109375 -5.984375 4.664062 -5.769531 5.0625 -5.34375 C 5.46875 -4.925781 5.671875 -4.316406 5.671875 -3.515625 C 5.671875 -2.796875 5.550781 -2.164062 5.3125 -1.625 C 5.082031 -1.082031 4.738281 -0.660156 4.28125 -0.359375 C 3.820312 -0.0546875 3.269531 0.09375 2.625 0.09375 C 1.90625 0.09375 1.34375 -0.117188 0.9375 -0.546875 C 0.539062 -0.984375 0.34375 -1.601562 0.34375 -2.40625 C 0.34375 -3.132812 0.457031 -3.765625 0.6875 -4.296875 C 0.925781 -4.835938 1.269531 -5.253906 1.71875 -5.546875 C 2.175781 -5.835938 2.734375 -5.984375 3.390625 -5.984375 Z M 3.234375 -5 C 2.679688 -5 2.269531 -4.796875 2 -4.390625 C 1.726562 -3.984375 1.59375 -3.332031 1.59375 -2.4375 C 1.59375 -1.882812 1.679688 -1.476562 1.859375 -1.21875 C 2.046875 -0.96875 2.34375 -0.84375 2.75 -0.84375 C 3.289062 -0.84375 3.695312 -1.046875 3.96875 -1.453125 C 4.25 -1.867188 4.390625 -2.523438 4.390625 -3.421875 C 4.390625 -3.972656 4.300781 -4.375 4.125 -4.625 C 3.945312 -4.875 3.648438 -5 3.234375 -5 Z M 3.234375 -5 "/></g></g></g><g fill="#ba5cf0" fill-opacity="1"><g transform="translate(209.783764, 259.833909)"><g><path d="M 5.046875 -4.40625 C 5.046875 -3.96875 4.929688 -3.566406 4.703125 -3.203125 C 4.472656 -2.835938 4.148438 -2.546875 3.734375 -2.328125 C 4.066406 -1.640625 4.445312 -0.957031 4.875 -0.28125 L 4.84375 -0.140625 C 4.425781 -0.00390625 4.019531 0.0703125 3.625 0.09375 L 3.515625 0 C 3.210938 -0.6875 2.941406 -1.359375 2.703125 -2.015625 L 1.859375 -2.015625 L 1.828125 -1.875 L 1.65625 0 L 0.4375 0 L 0.71875 -1.765625 L 1.1875 -5.890625 L 3.3125 -5.90625 C 3.851562 -5.90625 4.273438 -5.773438 4.578125 -5.515625 C 4.890625 -5.253906 5.046875 -4.882812 5.046875 -4.40625 Z M 1.984375 -2.9375 L 2.859375 -2.90625 C 3.472656 -3.113281 3.78125 -3.546875 3.78125 -4.203125 C 3.78125 -4.710938 3.484375 -4.984375 2.890625 -5.015625 L 2.28125 -4.984375 Z M 1.984375 -2.9375 "/></g></g></g><g clip-path="url(#bb809b129c)"><g clip-path="url(#29a2531fd7)"><g clip-path="url(#254104e48c)"><path fill="#ba5cf0" d="M 153.902344 150.066406 L 153.914062 150.042969 L 153.910156 150.042969 Z M 153.902344 150.066406 " fill-opacity="1" fill-rule="nonzero"/></g></g></g><g clip-path="url(#c126c2d7dc)"><g clip-path="url(#d5f6f727e7)"><g clip-path="url(#616457ee50)"><path fill="#ba5cf0" d="M 97.816406 129.730469 L 97.820312 129.730469 C 97.824219 129.714844 97.824219 129.691406 97.828125 129.675781 L 97.824219 129.671875 C 97.820312 129.691406 97.820312 129.710938 97.816406 129.730469 " fill-opacity="1" fill-rule="nonzero"/></g></g></g><g clip-path="url(#d40dced05f)"><g clip-path="url(#0f8002730d)"><g clip-path="url(#665a8dc266)"><path fill="#ba5cf0" d="M 65.78125 120.816406 C 65.78125 120.820312 65.78125 120.824219 65.78125 120.828125 L 65.785156 120.816406 L 65.78125 120.816406 " fill-opacity="1" fill-rule="nonzero"/></g></g></g><g clip-path="url(#210796808c)"><g clip-path="url(#f1e798b2c8)"><g clip-path="url(#69c1b4dd3e)"><g clip-path="url(#78c2814d3b)"><path fill="#ba5cf0" d="M 14.859375 96.414062 C 14.601562 97.765625 14.589844 99.175781 14.808594 100.523438 C 15.027344 101.871094 15.46875 103.144531 16.027344 104.3125 C 17.15625 106.644531 18.714844 108.566406 20.386719 110.25 C 22.066406 111.929688 23.878906 113.386719 25.742188 114.714844 C 27.605469 116.046875 29.539062 117.226562 31.496094 118.335938 C 35.417969 120.550781 39.464844 122.425781 43.578125 124.082031 C 45.632812 124.90625 47.703125 125.6875 49.789062 126.410156 C 51.871094 127.140625 53.972656 127.816406 56.078125 128.453125 C 59.367188 129.453125 62.679688 130.351562 66.007812 131.175781 C 68.160156 131.707031 70.320312 132.207031 72.484375 132.683594 C 75.539062 133.355469 78.601562 133.972656 81.664062 134.5625 C 86.792969 135.539062 91.933594 136.421875 97.074219 137.257812 C 99.160156 137.597656 101.246094 137.925781 103.332031 138.253906 C 104.722656 138.472656 106.109375 138.6875 107.492188 138.898438 C 116.109375 140.214844 124.742188 141.433594 133.386719 142.546875 C 139.160156 143.28125 144.988281 144.003906 150.78125 144.65625 C 151.839844 144.777344 153.582031 144.964844 154.742188 145.089844 C 155.519531 145.171875 156.152344 144.4375 155.917969 143.695312 C 155.902344 143.652344 155.890625 143.609375 155.871094 143.574219 C 155.402344 142.597656 154.4375 141.953125 153.355469 141.890625 C 152.722656 141.855469 152.046875 141.820312 151.5625 141.792969 C 145.570312 141.484375 139.589844 141.042969 133.621094 140.441406 C 124.984375 139.582031 116.371094 138.421875 107.828125 136.890625 C 107.226562 136.785156 106.628906 136.675781 106.035156 136.5625 C 105.726562 136.507812 105.425781 136.453125 105.121094 136.394531 C 104.988281 136.367188 104.851562 136.339844 104.714844 136.3125 C 104.511719 136.277344 104.304688 136.238281 104.101562 136.195312 C 103.898438 136.160156 103.695312 136.121094 103.496094 136.082031 C 103.34375 136.054688 103.191406 136.023438 103.039062 135.992188 C 102.675781 135.921875 102.3125 135.851562 101.953125 135.777344 C 101.949219 135.773438 101.941406 135.777344 101.9375 135.773438 C 101.417969 135.667969 100.898438 135.5625 100.378906 135.457031 C 99.863281 135.351562 99.355469 135.203125 98.835938 135.09375 C 98.320312 134.980469 97.800781 134.867188 97.292969 134.71875 L 97.28125 134.714844 C 92.265625 133.789062 87.367188 132.445312 82.464844 131.113281 C 79.011719 130.175781 75.59375 129.132812 72.167969 128.136719 L 72.160156 128.136719 C 70.011719 127.515625 67.867188 126.894531 65.773438 126.109375 C 65.769531 126.109375 65.769531 126.109375 65.769531 126.109375 L 65.742188 126.101562 C 63.035156 125.316406 60.386719 124.351562 57.734375 123.414062 C 56.722656 123.054688 55.707031 122.707031 54.699219 122.335938 C 53.691406 121.964844 52.6875 121.597656 51.683594 121.214844 C 49.683594 120.441406 47.695312 119.667969 45.726562 118.84375 C 41.792969 117.195312 37.921875 115.433594 34.234375 113.421875 C 32.390625 112.417969 30.605469 111.335938 28.898438 110.179688 C 27.191406 109.027344 25.574219 107.78125 24.148438 106.414062 C 22.722656 105.054688 21.472656 103.574219 20.65625 102.007812 C 19.835938 100.441406 19.480469 98.839844 19.714844 97.257812 C 19.929688 95.671875 20.769531 94.089844 21.972656 92.644531 C 23.179688 91.195312 24.730469 89.902344 26.398438 88.730469 C 28.074219 87.558594 29.890625 86.519531 31.769531 85.5625 C 33.640625 84.601562 35.585938 83.742188 37.5625 82.929688 C 41.519531 81.316406 45.617188 79.957031 49.753906 78.710938 C 53.898438 77.476562 58.097656 76.367188 62.324219 75.316406 L 62.214844 74.691406 C 57.871094 75.125 53.539062 75.738281 49.230469 76.558594 C 44.921875 77.375 40.636719 78.40625 36.410156 79.746094 C 32.195312 81.109375 28.011719 82.753906 24.066406 85.152344 C 22.101562 86.359375 20.195312 87.773438 18.511719 89.582031 C 17.671875 90.484375 16.894531 91.496094 16.253906 92.644531 C 15.617188 93.78125 15.121094 95.0625 14.859375 96.414062 " fill-opacity="1" fill-rule="nonzero"/></g></g></g></g><g clip-path="url(#021f38610e)"><g clip-path="url(#895820001c)"><g clip-path="url(#0558a0a570)"><path fill="#ba5cf0" d="M 192.308594 189.195312 C 192.304688 189.203125 192.304688 189.210938 192.300781 189.210938 C 192.300781 189.21875 192.300781 189.226562 192.296875 189.234375 L 192.367188 189.230469 C 192.347656 189.21875 192.328125 189.207031 192.308594 189.195312 " fill-opacity="1" fill-rule="nonzero"/></g></g></g><g clip-path="url(#af1ac68148)"><g clip-path="url(#702e70434d)"><g clip-path="url(#31d3f73cc2)"><path fill="#ba5cf0" d="M 155.804688 131.511719 L 158.394531 137.015625 L 159.09375 138.503906 C 159.09375 138.503906 160.800781 142.132812 160.8125 142.15625 C 161.207031 142.996094 161.46875 143.902344 161.386719 144.832031 C 161.3125 145.652344 160.964844 146.398438 160.664062 147.148438 C 160.199219 148.3125 159.738281 149.480469 159.273438 150.640625 L 159.269531 150.652344 L 156.660156 157.21875 C 156.3125 158.105469 156.738281 158.796875 157.617188 158.765625 C 158.496094 158.738281 159.664062 158.074219 160.199219 157.289062 L 164.398438 151.144531 L 164.402344 151.136719 L 167.210938 147.003906 L 175.816406 147.039062 L 176.445312 147.042969 L 176.453125 147.042969 L 200.949219 147.148438 L 200.625 147.980469 L 200.625 147.984375 L 200.621094 148 L 200.691406 148.03125 L 198.976562 153.0625 L 198.96875 153.09375 L 187.769531 182.90625 C 187.539062 183.527344 187.589844 184.078125 188.078125 184.21875 L 188.105469 184.226562 C 188.289062 184.277344 188.511719 184.316406 188.757812 184.308594 L 192.71875 184.171875 C 193.636719 184.144531 194.78125 183.492188 195.257812 182.707031 L 199.773438 175.261719 C 199.988281 175.351562 200.226562 175.285156 200.472656 175.277344 L 202.214844 175.21875 L 202.679688 175.203125 C 203.601562 175.175781 204.375 174.617188 204.34375 173.695312 L 204.320312 173.027344 C 204.3125 172.730469 204.222656 172.429688 204.070312 172.164062 C 203.753906 171.59375 203.175781 171.15625 202.554688 171.179688 L 202.152344 171.191406 L 206.136719 164.734375 C 206.351562 164.824219 206.59375 165 206.839844 164.996094 L 207.753906 164.964844 L 208.984375 164.921875 C 209.902344 164.894531 210.65625 164.09375 210.625 163.175781 L 210.605469 162.503906 C 210.582031 161.90625 210.234375 161.269531 209.734375 160.910156 C 209.46875 160.714844 209.164062 160.601562 208.84375 160.609375 L 208.511719 160.621094 L 212.972656 153.3125 L 213.175781 152.984375 L 216.300781 147.859375 L 216.742188 147.136719 L 229.027344 147.335938 L 229.125 147.335938 C 231.960938 147.34375 237.449219 145.917969 240.097656 143.964844 C 241.003906 143.292969 241.574219 142.5625 241.59375 141.804688 C 241.613281 141.097656 241.144531 140.433594 240.363281 139.828125 C 237.886719 137.898438 232.289062 136.597656 229.386719 136.59375 C 229.335938 136.59375 224.78125 136.898438 218.125 137.359375 C 217.90625 137.375 217.691406 137.390625 217.46875 137.40625 C 217.132812 137.429688 216.789062 137.453125 216.441406 137.476562 L 216.121094 137.015625 L 215.90625 136.707031 L 212.960938 132.464844 L 207.339844 124.382812 L 207.671875 124.371094 C 208.59375 124.34375 209.347656 123.601562 209.320312 122.683594 L 209.296875 122.011719 C 209.265625 121.089844 208.472656 120.605469 207.554688 120.632812 L 205.410156 120.703125 C 205.164062 120.710938 204.921875 120.613281 204.714844 120.71875 L 200.316406 114.246094 L 200.710938 114.234375 C 201.632812 114.203125 202.398438 113.507812 202.371094 112.585938 L 202.347656 111.917969 C 202.320312 111 201.503906 110.175781 200.582031 110.207031 L 198.371094 110.277344 C 198.125 110.285156 197.890625 110.355469 197.683594 110.460938 L 192.699219 103.304688 C 192.171875 102.546875 190.988281 101.878906 190.066406 101.910156 L 186.113281 102.035156 C 185.191406 102.066406 184.746094 102.851562 185.125 103.695312 L 197.597656 131.644531 L 200.105469 137.277344 L 200.695312 138.59375 C 200.203125 138.628906 199.710938 138.660156 199.21875 138.695312 C 185.730469 139.632812 171.785156 140.601562 166.960938 140.9375 L 164.027344 137.195312 L 160.707031 132.953125 L 159.335938 131.203125 C 158.75 130.457031 157.550781 129.871094 156.675781 129.898438 C 155.789062 129.925781 155.402344 130.652344 155.804688 131.511719 " fill-opacity="1" fill-rule="nonzero"/></g></g></g></svg>